# xmcd
#
# Track frame offsets:
#	183
#	16473
#	31385
#	43520
#	65385
#	79663
#	95225
#	113743
#	124553
#	139358
#
# Disc length: 2061 seconds
#
# Revision: 1
# Processed by: cddbd v1.5.2PL0 Copyright (c) Steve Scherf et al.
# Submitted via: audiograbber 1.83.01
#
DISCID=83080b0a
DTITLE=Dan Paul Rogers - Love Martyr
DYEAR=1989
DGENRE=Country
TTITLE0=Country Lady
TTITLE1=If Your Love Was Forever
TTITLE2=Lover's Game
TTITLE3=You and I
TTITLE4=You're Just a Little Doll
TTITLE5=Don't Cry Lady
TTITLE6=A Place Out in the Country
TTITLE7=Rumour
TTITLE8=In My Mind Again
TTITLE9=Love Martyr
EXTD=
EXTT0=
EXTT1=
EXTT2=
EXTT3=
EXTT4=
EXTT5=
EXTT6=
EXTT7=
EXTT8=
EXTT9=
PLAYORDER=
